<svg xmlns="http://www.w3.org/2000/svg" width="303.70675" height="525.41846" viewBox="0 0 303.70675 525.41846" xmlns:xlink="http://www.w3.org/1999/xlink"><path d="m42.48676,524.22846c0,.65997.53,1.19,1.19,1.19h258.83998c.66,0,1.19-.53003,1.19-1.19s-.53-1.19-1.19-1.19H43.67676c-.66,0-1.19.53003-1.19,1.19Z" fill="#484565"/><path d="m178.60676.32846s-21.91-5.31-35.17,26.77c-11.05,26.74-18.89,41.02-9.92,50.72001,3.21001,3.47,7.78999,5.34,12.50999,5.5l50.5,1.66s18.54001-48.62,7.27-66.2C192.52676,1.18846,178.60676.32846,178.60676.32846Z" fill="#2f2e41"/><polygon points="189.06676 80.93847 164.77676 88.92846 164.77676 53.95847 186.81676 53.95847 189.06676 80.93847" fill="#f6a6a9"/><polygon points="170.42675 504.68848 147.66676 504.68848 134.47677 383.10846 169.64677 383.10846 170.42675 504.68848" fill="#f6a6a9"/><path d="m125.50676,524.22846c-2.39,0-4.52-.06-6.13-.21002-6.05-.54999-11.81-5.01001-14.71-7.62-1.3-1.16998-1.72-3.03998-1.04-4.64999h0c.49-1.16,1.46-2.01999,2.66-2.35999l15.97-4.56,25.86-17.45001.28999.51999c.11.19,2.64999,4.76999,3.5,7.85999.32001,1.17999.24001,2.16-.25,2.91-.34.53-.81.82999-1.2,1,.47.48999,1.94,1.48001,6.45,2.20001,6.60001,1.04999,7.98-5.79001,8.03999-6.07999l.03999-.23001.2-.13c3.14-2.01999,5.07001-2.94,5.74001-2.75.42.12,1.11.32999,2.98,18.95001.19.57999,1.5,4.87003.61,8.95999-.97,4.46002-20.44,2.91998-24.34,2.57001-.11.01001-14.69,1.04999-24.68,1.04999v.02002h.01001Z" fill="#2f2e41"/><polygon points="221.82676 504.68848 199.07676 504.68848 185.87678 383.10846 221.04678 383.10846 221.82676 504.68848" fill="#f6a6a9"/><path d="m176.91676,524.22846c-2.39,0-4.52-.06-6.13-.21002-6.05-.54999-11.81-5.01001-14.71001-7.62-1.3-1.16998-1.72-3.03998-1.03999-4.64999h0c.49001-1.16,1.46001-2.01999,2.66-2.35999l15.97-4.56,25.86-17.45001.28999.51999c.11.19,2.64999,4.76999,3.5,7.85999.32001,1.17999.24001,2.16-.25,2.91-.34.53-.81.82999-1.2,1,.47.48999,1.94,1.48001,6.45,2.20001,6.60001,1.04999,7.98-5.79001,8.03999-6.07999l.03999-.23001.2-.13c3.14-2.01999,5.07001-2.94,5.74001-2.75.42.12,1.11.32999,2.98,18.95001.19.57999,1.5,4.87003.61,8.95999-.97,4.46002-20.44,2.91998-24.34,2.57001-.11.01001-14.69,1.04999-24.68001,1.04999v.02002h.01003Z" fill="#2f2e41"/><polygon points="228.37678 206.06847 117.81676 206.06847 157.55675 75.27846 201.63676 75.27846 228.37678 206.06847" fill="#dddedf"/><path id="uuid-66b3dceb-eb78-472d-bf6e-ff966fbe189c-64" d="m114.80676,279.45847c-1.32,8.01001-6.66,13.76001-11.93,12.82999-5.27-.92999-8.48-8.17001-7.16-16.17999.48-3.20999,1.75-6.23999,3.7-8.85001l6.02-33.87,16.39,3.42999-7.68,33.01999c1.01,3.12,1.24,6.42001.67,9.62h0l-.00999.00003Z" fill="#f6a6a9"/><path d="m164.51678,75.29847s-27.46001-.72-30.35001,6.5c-2.89,7.23-36.85,179.21001-36.85,179.21001h22.4s44.8-185.71001,44.8-185.71001Z" fill="#dddedf"/><circle cx="170.34678" cy="38.00846" r="24.21" fill="#f6a6a9"/><path d="m174.14677,8.31846s-31.08,46.23-25.85001,75.07l-18.08-11.33s12.73-58.38,31.7-62.91l12.23-.84h0v.01s.00002,0,.00002,0Z" fill="#2f2e41"/><path d="m205.39677,206.06847h-72.55l-39.7,162.93001c-.73,6.88,3.63,13.29999,10.32,15.09,21.78,5.82999,74.04,14.10001,153.14999-8.92001,7.60999-2.20999,11.92999-10.23999,9.54001-17.79999l-60.75999-151.28999h0l-.00002-.00999.00002-.00002Z" fill="#2f2e41"/><path d="m107.54678,98.47847l-.5-.5-.5.5c-24.33-24.31-63.76-24.28-88.07.05-24.31,24.34-24.8,64.26001-.47,88.57001h0l89.1,89.01001,89.03999-89.12h0c24.31-24.34,23.8-64.26-.52-88.57-24.33-24.31-63.75999-24.28-88.07.05h0s-.00999.00998-.00999.00997Z" fill="#f50057"/><path d="m173.34678,87.51847l20.10001-10.31c9.19-3.4,19.44-2.26,27.66,3.09,25,16.26,74.27998,52.11002,53.10002,69.83002-27.91,23.36-65.64-18.07001-65.64-18.07001l-35.22-44.54h-.00003Z" fill="#dddedf"/><path id="uuid-3a4b3aa4-6bac-403c-a16e-09b93f047ea3-65" d="m172.90678,105.13846c-6.99001-4.12-10.42-11.18-7.64999-15.77,2.77-4.58,10.67999-4.95,17.67999-.83,2.82001,1.61,5.19,3.89,6.91,6.65l29.39999,17.86-9.12,14.04-28.02-19.1c-3.28-.19-6.44-1.17-9.21001-2.86h.00999l.00002.01Z" fill="#f6a6a9"/><polygon points="192.88676 121.32847 201.24676 101.35846 242.09678 114.87847 223.82676 145.28847 192.88676 121.32847" fill="#dddedf"/></svg>
