<svg width="207" height="24" viewBox="0 0 207 24" fill="none" xmlns="http://www.w3.org/2000/svg">
<path d="M9.025 1H14.375V6.35H9.025V18.3875C9.025 19.725 8.2225 22.4 5.0125 22.4C1.8025 22.4 1 19.725 1 18.3875C1 17.05 1.8025 14.375 5.0125 14.375C8.2225 14.375 9.025 17.05 9.025 18.3875V1Z" fill="#F5F5F5"/>
<path d="M9.025 18.3875V6.35ZM9.025 18.3875C9.025 19.725 8.2225 22.4 5.0125 22.4C1.8025 22.4 1 19.725 1 18.3875C1 17.05 1.8025 14.375 5.0125 14.375C8.2225 14.375 9.025 17.05 9.025 18.3875ZM9.025 6.35V1H14.375V6.35H9.025Z" fill="#F5F5F5"/>
<path d="M9.025 18.3875V6.35M9.025 18.3875C9.025 19.725 8.2225 22.4 5.0125 22.4C1.8025 22.4 1 19.725 1 18.3875C1 17.05 1.8025 14.375 5.0125 14.375C8.2225 14.375 9.025 17.05 9.025 18.3875ZM9.025 6.35V1H14.375V6.35H9.025Z" stroke="#F5F5F5" stroke-width="2" stroke-linecap="round" stroke-linejoin="round"/>
<path d="M25.0917 5.65H27.1437L30.8517 9.142V11.86L27.3597 8.566V16H25.0917V5.65ZM37.4937 5.65H35.4597L31.7337 9.142V11.86L35.2257 8.566V16H37.4937V5.65ZM43.6078 5.65V14.776L45.6598 16H49.3678V13.894H45.8758V5.65H43.6078ZM56.0098 5.65V14.776L53.9758 16H50.2498V13.894H53.7418V5.65H56.0098ZM61.5832 6.892V10.69L63.6352 11.914H67.3432V9.808H63.7792V7.774H67.3432V5.65H63.6352L61.5832 6.892ZM73.9852 11.05V14.776L71.8612 16H68.2252V13.966H71.7172V11.914H68.1532V9.808H71.8612L73.9852 11.05ZM63.8512 12.724H61.5832V14.776L63.6892 16H67.3432V13.966H63.8512V12.724ZM73.9852 8.998H71.7172V7.774H68.1532V5.65H71.8612L73.9852 6.892V8.998ZM79.567 5.65H81.835V16H79.567V5.65ZM87.5974 6.892L89.7034 5.65H93.4294V7.684H89.9374V13.894H93.3574V16H89.7034L87.5974 14.776V6.892ZM97.7314 12.652V13.894H94.3114V16H97.9654L100.071 14.776V12.652H97.7314ZM100.071 8.944V6.892L97.9654 5.65H94.2394V7.684H97.7314V8.944H100.071ZM106.183 5.65H111.943V7.774H108.451V9.808H111.943V11.86H108.451V13.966H111.871V16H106.183V5.65ZM112.825 13.966V16H118.585V13.966H112.825ZM118.585 7.774V5.65H112.753V7.774H118.585ZM115.669 11.86V9.808H112.753V11.86H115.669ZM124.243 5.65L127.951 11.86V16L122.191 6.316L124.243 5.65ZM132.559 5.65L128.833 11.86V16L134.593 6.316L132.559 5.65ZM139.453 5.65H145.213V7.774H141.721V9.808H145.213V11.86H141.721V13.966H145.141V16H139.453V5.65ZM146.095 13.966V16H151.855V13.966H146.095ZM151.855 7.774V5.65H146.023V7.774H151.855ZM148.939 11.86V9.808H146.023V11.86H148.939ZM157.081 5.65H159.133L162.841 9.142V11.86L159.349 8.494V16H157.081V5.65ZM167.215 13.084V5.65H169.483V16H167.359L163.651 12.436V9.808L167.215 13.084ZM187.099 7.684H181.915V16H179.431V7.684H174.697V5.65H187.099V7.684ZM191.779 6.892V10.69L193.831 11.914H197.539V9.808H193.975V7.774H197.539V5.65H193.831L191.779 6.892ZM204.181 11.05V14.776L202.057 16H198.421V13.966H201.913V11.914H198.349V9.808H202.057L204.181 11.05ZM194.047 12.724H191.779V14.776L193.885 16H197.539V13.966H194.047V12.724ZM204.181 8.998H201.913V7.774H198.349V5.65H202.057L204.181 6.892V8.998Z" fill="#F5F5F5"/>
</svg>
